<mxfile host="app.diagrams.net" agent="Mozilla/5.0 (X11; Linux x86_64; rv:109.0) Gecko/20100101 Firefox/115.0" version="24.7.14">
  <diagram name="Page-1" id="jdIPD2SImJi5prmZ0-Mv">
    <mxGraphModel dx="491" dy="253" grid="1" gridSize="10" guides="1" tooltips="1" connect="1" arrows="1" fold="1" page="1" pageScale="1" pageWidth="850" pageHeight="1100" math="0" shadow="0">
      <root>
        <mxCell id="0" />
        <mxCell id="1" parent="0" />
        <mxCell id="VW4Ogy6LILLo-xnYJmG_-1" value="&lt;div style=&quot;font-size: 7px;&quot; align=&quot;center&quot;&gt;&lt;b&gt;&lt;font style=&quot;font-size: 7px;&quot;&gt;17/06/24 - 17/07/24&lt;br&gt;&lt;/font&gt;&lt;/b&gt;&lt;/div&gt;&lt;div style=&quot;font-size: 7px;&quot; align=&quot;left&quot;&gt;&lt;b&gt;&lt;font style=&quot;font-size: 7px;&quot;&gt;&lt;br&gt;&lt;/font&gt;&lt;/b&gt;&lt;/div&gt;&lt;div style=&quot;font-size: 7px;&quot; align=&quot;left&quot;&gt;&lt;font style=&quot;font-size: 7px;&quot;&gt;-Mise en place de l&#39;architecture &lt;br&gt;&lt;/font&gt;&lt;/div&gt;&lt;div style=&quot;font-size: 7px;&quot; align=&quot;left&quot;&gt;&lt;font style=&quot;font-size: 7px;&quot;&gt;-Authentification&lt;/font&gt;&lt;/div&gt;&lt;div style=&quot;font-size: 7px;&quot; align=&quot;left&quot;&gt;&lt;font style=&quot;font-size: 7px;&quot;&gt;-Gestion des boutiques&lt;/font&gt;&lt;/div&gt;&lt;div style=&quot;font-size: 7px;&quot; align=&quot;left&quot;&gt;&lt;font style=&quot;font-size: 7px;&quot;&gt;-Gestion des produits&lt;/font&gt;&lt;/div&gt;" style="rounded=1;whiteSpace=wrap;html=1;fillColor=#e1d5e7;strokeColor=#9673a6;align=left;" parent="1" vertex="1">
          <mxGeometry x="15" y="280" width="100" height="60" as="geometry" />
        </mxCell>
        <mxCell id="VW4Ogy6LILLo-xnYJmG_-2" value="" style="endArrow=none;html=1;rounded=0;strokeColor=#FF1C77;strokeWidth=3;" parent="1" edge="1">
          <mxGeometry width="50" height="50" relative="1" as="geometry">
            <mxPoint x="10" y="265" as="sourcePoint" />
            <mxPoint x="370" y="265" as="targetPoint" />
          </mxGeometry>
        </mxCell>
        <mxCell id="VW4Ogy6LILLo-xnYJmG_-4" value="" style="ellipse;whiteSpace=wrap;html=1;aspect=fixed;perimeterSpacing=4;strokeWidth=1;fillColor=#ffe6cc;strokeColor=#d79b00;" parent="1" vertex="1">
          <mxGeometry x="60" y="260" width="10" height="10" as="geometry" />
        </mxCell>
        <mxCell id="VW4Ogy6LILLo-xnYJmG_-7" value="&lt;font style=&quot;font-size: 8px;&quot;&gt;Sprint 1&lt;/font&gt;" style="shape=step;perimeter=stepPerimeter;whiteSpace=wrap;html=1;fixedSize=1;fillColor=#f8cecc;strokeColor=#b85450;" parent="1" vertex="1">
          <mxGeometry x="25" y="220" width="80" height="30" as="geometry" />
        </mxCell>
        <mxCell id="VW4Ogy6LILLo-xnYJmG_-8" value="&lt;div style=&quot;font-size: 7px;&quot;&gt;&lt;b&gt;&lt;font style=&quot;font-size: 7px;&quot;&gt;18/07/24 - 01/08/24&lt;br&gt;&lt;/font&gt;&lt;/b&gt;&lt;/div&gt;&lt;div style=&quot;font-size: 7px;&quot; align=&quot;left&quot;&gt;&lt;b&gt;&lt;font style=&quot;font-size: 7px;&quot;&gt;&lt;br&gt;&lt;/font&gt;&lt;/b&gt;&lt;/div&gt;&lt;div style=&quot;font-size: 7px;&quot; align=&quot;left&quot;&gt;&lt;font style=&quot;font-size: 7px;&quot;&gt;-Gestion des commentaires&lt;br&gt;&lt;/font&gt;&lt;/div&gt;&lt;div style=&quot;font-size: 7px;&quot; align=&quot;left&quot;&gt;&lt;font style=&quot;font-size: 7px;&quot;&gt;-Gestion des commandes&lt;br&gt;&lt;/font&gt;&lt;/div&gt;&lt;div style=&quot;font-size: 7px;&quot; align=&quot;left&quot;&gt;&lt;font style=&quot;font-size: 7px;&quot;&gt;-Gestion des paiements&lt;/font&gt;&lt;/div&gt;&lt;div style=&quot;font-size: 7px;&quot; align=&quot;left&quot;&gt;&lt;font style=&quot;font-size: 7px;&quot;&gt;-Gestion des offres&lt;br&gt;&lt;/font&gt;&lt;/div&gt;" style="rounded=1;whiteSpace=wrap;html=1;fillColor=#e1d5e7;strokeColor=#9673a6;" parent="1" vertex="1">
          <mxGeometry x="130" y="280" width="100" height="60" as="geometry" />
        </mxCell>
        <mxCell id="VW4Ogy6LILLo-xnYJmG_-9" value="" style="ellipse;whiteSpace=wrap;html=1;aspect=fixed;perimeterSpacing=4;strokeWidth=1;fillColor=#ffe6cc;strokeColor=#d79b00;" parent="1" vertex="1">
          <mxGeometry x="175" y="260" width="10" height="10" as="geometry" />
        </mxCell>
        <mxCell id="VW4Ogy6LILLo-xnYJmG_-10" value="&lt;font style=&quot;font-size: 8px;&quot;&gt;Sprint 2&lt;br&gt;&lt;/font&gt;" style="shape=step;perimeter=stepPerimeter;whiteSpace=wrap;html=1;fixedSize=1;fillColor=#d5e8d4;strokeColor=#82b366;" parent="1" vertex="1">
          <mxGeometry x="140" y="220" width="80" height="30" as="geometry" />
        </mxCell>
        <mxCell id="VW4Ogy6LILLo-xnYJmG_-11" value="&lt;div style=&quot;font-size: 7px;&quot;&gt;&lt;b&gt;&lt;font style=&quot;font-size: 7px;&quot;&gt;04/08/24 - 26/09/24&lt;br&gt;&lt;/font&gt;&lt;/b&gt;&lt;/div&gt;&lt;div style=&quot;font-size: 7px;&quot;&gt;&lt;b&gt;&lt;font style=&quot;font-size: 7px;&quot;&gt;&lt;br&gt;&lt;/font&gt;&lt;/b&gt;&lt;/div&gt;&lt;div style=&quot;font-size: 7px;&quot; align=&quot;left&quot;&gt;&lt;font style=&quot;font-size: 7px;&quot;&gt;-Tableaux de bord&lt;br&gt;&lt;/font&gt;&lt;/div&gt;&lt;div style=&quot;font-size: 7px;&quot; align=&quot;left&quot;&gt;&lt;font style=&quot;font-size: 7px;&quot;&gt;-Exportation des donnÃ©es&lt;br&gt;&lt;/font&gt;&lt;/div&gt;&lt;div style=&quot;font-size: 7px;&quot; align=&quot;left&quot;&gt;&lt;font style=&quot;font-size: 7px;&quot;&gt;-Deploiement de l&#39;application&lt;br&gt;&lt;/font&gt;&lt;/div&gt;&lt;div style=&quot;font-size: 7px;&quot; align=&quot;left&quot;&gt;&lt;font style=&quot;font-size: 7px;&quot;&gt;-Phase de test final&lt;br&gt;&lt;/font&gt;&lt;/div&gt;" style="rounded=1;whiteSpace=wrap;html=1;fillColor=#e1d5e7;strokeColor=#9673a6;" parent="1" vertex="1">
          <mxGeometry x="250" y="280" width="100" height="60" as="geometry" />
        </mxCell>
        <mxCell id="VW4Ogy6LILLo-xnYJmG_-12" value="" style="ellipse;whiteSpace=wrap;html=1;aspect=fixed;perimeterSpacing=4;strokeWidth=1;fillColor=#ffe6cc;strokeColor=#d79b00;" parent="1" vertex="1">
          <mxGeometry x="295" y="260" width="10" height="10" as="geometry" />
        </mxCell>
        <mxCell id="VW4Ogy6LILLo-xnYJmG_-13" value="&lt;font style=&quot;font-size: 8px;&quot;&gt;Sprint 3&lt;br&gt;&lt;/font&gt;" style="shape=step;perimeter=stepPerimeter;whiteSpace=wrap;html=1;fixedSize=1;fillColor=#b1ddf0;strokeColor=#10739e;" parent="1" vertex="1">
          <mxGeometry x="260" y="220" width="80" height="30" as="geometry" />
        </mxCell>
      </root>
    </mxGraphModel>
  </diagram>
</mxfile>
